<?xml version="1.0" encoding="utf-8"?>
<!-- Generator: Adobe Illustrator 19.1.0, SVG Export Plug-In . SVG Version: 6.00 Build 0)  -->
<svg version="1.1" id="Layer_1" xmlns="http://www.w3.org/2000/svg" xmlns:xlink="http://www.w3.org/1999/xlink" x="0px" y="0px"
	 viewBox="-482 626.6 128.2 167.7" style="enable-background:new -482 626.6 128.2 167.7;" xml:space="preserve">
<style type="text/css">
	.st0{fill:#FFFFFF;stroke:#000000;stroke-miterlimit:10;}
	.st1{fill:none;stroke:#000000;stroke-miterlimit:10;}
</style>
<circle class="st0" cx="-417.8" cy="656.8" r="29.7"/>
<ellipse class="st0" cx="-417.8" cy="730.8" rx="6.5" ry="44.3"/>
<line class="st1" x1="-424.3" y1="720.5" x2="-455.4" y2="701.5"/>
<line class="st1" x1="-411.2" y1="720.5" x2="-383.3" y2="701.5"/>
<circle class="st1" cx="-377.3" cy="698.1" r="7.1"/>
<circle class="st1" cx="-461.4" cy="698.1" r="7.1"/>
<line class="st1" x1="-381.7" y1="782.2" x2="-412.8" y2="763.2"/>
<line class="st1" x1="-450.5" y1="782.2" x2="-422.6" y2="763.2"/>
<circle class="st1" cx="-456.1" cy="786.7" r="7.1"/>
<circle class="st1" cx="-375.4" cy="785.5" r="7.1"/>
<g>
	<path class="st1" d="M-449.6,654.4c0,0-11.8-0.6-15.2,8.7c-3.4,9.3,6.5,7.1,6.5,7.1s5.4-1.9,4.1-7.2
		C-455.5,657.8-449.6,654.4-449.6,654.4z"/>
	<path class="st1" d="M-465.6,673.1c0,0-11.8-0.6-15.2,8.7s6.5,7.1,6.5,7.1s5.4-1.9,4.1-7.2C-471.5,676.4-465.6,673.1-465.6,673.1z"
		/>
</g>
<circle class="st1" cx="-405.5" cy="650" r="7.1"/>
<circle class="st1" cx="-431.4" cy="651.4" r="7.1"/>
<g>
	<path class="st1" d="M-370.2,673.1c0,0,11.8-0.6,15.2,8.7c3.4,9.3-6.5,7.1-6.5,7.1s-5.4-1.9-4.1-7.2
		C-364.3,676.4-370.2,673.1-370.2,673.1z"/>
	<path class="st1" d="M-386.1,654.4c0,0,11.8-0.6,15.2,8.7c3.4,9.3-6.5,7.1-6.5,7.1s-5.4-1.9-4.1-7.2
		C-380.2,657.7-386.1,654.4-386.1,654.4z"/>
</g>
</svg>
