<?xml version="1.0" encoding="utf-8"?>
<!-- Generator: Adobe Illustrator 19.1.0, SVG Export Plug-In . SVG Version: 6.00 Build 0)  -->
<svg version="1.1" id="Layer_1" xmlns="http://www.w3.org/2000/svg" xmlns:xlink="http://www.w3.org/1999/xlink" x="0px" y="0px"
	 viewBox="-481.9 615.9 160.1 178" style="enable-background:new -481.9 615.9 160.1 178;" xml:space="preserve">
<style type="text/css">
	.st0{fill:#FFFFFF;stroke:#000000;stroke-miterlimit:10;}
	.st1{fill:none;stroke:#000000;stroke-miterlimit:10;}
</style>
<circle class="st0" cx="-401.8" cy="646.1" r="29.7"/>
<ellipse class="st0" cx="-401.8" cy="720.1" rx="6.5" ry="44.3"/>
<line class="st1" x1="-408.3" y1="709.8" x2="-439.4" y2="728.8"/>
<line class="st1" x1="-395.2" y1="709.8" x2="-367.3" y2="728.8"/>
<circle class="st1" cx="-361.3" cy="732.3" r="7.1"/>
<circle class="st1" cx="-445.4" cy="732.3" r="7.1"/>
<line class="st1" x1="-374.4" y1="781" x2="-397.1" y2="752.5"/>
<line class="st1" x1="-425.7" y1="779.9" x2="-406" y2="752.5"/>
<circle class="st1" cx="-429.4" cy="786.1" r="7.1"/>
<circle class="st1" cx="-369.6" cy="786.3" r="7.1"/>
<circle class="st1" cx="-389.5" cy="639.3" r="7.1"/>
<circle class="st1" cx="-415.4" cy="640.7" r="7.1"/>
<g>
	<path class="st1" d="M-439.4,658.4c0,0-11.8-0.6-15.2,8.7s6.5,7.1,6.5,7.1s5.4-1.9,4.1-7.2C-445.3,661.8-439.4,658.4-439.4,658.4z"
		/>
	<path class="st1" d="M-455.4,677.1c0,0-11.8-0.6-15.2,8.7c-3.4,9.3,6.5,7.1,6.5,7.1s5.4-1.9,4.1-7.2
		C-461.3,680.4-455.4,677.1-455.4,677.1z"/>
</g>
<g>
	<path class="st1" d="M-357.6,664.4c-1.3,5.3,4.1,7.2,4.1,7.2s9.9,2.2,6.5-7.1c-3.4-9.3-15.2-8.7-15.2-8.7S-356.3,659.2-357.6,664.4
		z"/>
	<path class="st1" d="M-341.6,683.1c-1.3,5.3,4.1,7.2,4.1,7.2s9.9,2.2,6.5-7.1s-15.2-8.7-15.2-8.7S-340.3,677.8-341.6,683.1z"/>
</g>
</svg>
